<svg xmlns="http://www.w3.org/2000/svg" width="1651" height="234" fill="none"><path fill="#fff" d="M631 .41h4.21v232.88H631V.41Z"/><path fill="#3C8CF0" d="M818.39 229.92c62.441 0 113.06-50.619 113.06-113.06S880.831 3.8 818.39 3.8 705.33 54.419 705.33 116.86s50.619 113.06 113.06 113.06Z"/><path fill="#fff" d="m791.15 64.18 87.54 51.44c1.17.69 1.16 2.37 0 3.05l-87.54 50.86c-1.18.68-2.66-.17-2.66-1.53V65.7c0-1.37 1.49-2.22 2.66-1.52ZM992.97 72.81l39.15 42.41 39.02-42.41c2.85-3.13 4.21-4.08 5.85-4.08 2.18 0 3.26 1.77 3.26 5.17v87.82c0 2.31-.95 3.53-3.53 3.53h-16.45c-2.45 0-3.67-1.22-3.67-3.53v-41.05l-19.44 22.16c-2.58 2.72-3.67 3.67-5.17 3.67s-2.72-.95-5.03-3.67l-19.44-22.16v41.05c0 2.58-1.09 3.53-3.67 3.53H987.4c-2.31 0-3.53-1.22-3.53-3.53V73.9c0-3.26 1.09-5.17 3.26-5.17 1.63 0 3.26 1.22 5.85 4.08h-.01Zm98.7-.81c0-1.22 1.22-1.9 2.99-1.9h20.53c3.4 0 4.49.68 6.53 3.94l15.91 25.42 16.59-25.96c1.77-2.85 2.99-3.4 6.12-3.4h19.85c1.9 0 2.85.54 2.85 1.77 0 .41-.27 1.22-.82 2.18l-29.09 43.09 29.77 44.18c.54.82.82 1.5.82 2.04 0 1.22-1.22 1.9-2.85 1.9h-20.53c-3.4 0-4.49-.68-6.53-3.94l-16.86-26.1-17.13 26.65c-1.77 2.85-2.85 3.4-5.98 3.4h-19.85c-2.04 0-2.99-.68-2.99-1.9 0-.54.27-1.22.82-2.04l29.77-43.91-29.09-43.37c-.54-.82-.82-1.5-.82-2.04l-.01-.01Zm136.89-1.91c25.01 0 37.11 10.6 37.11 29.77s-13.59 31.13-38.47 31.13h-14.68c-.95 0-1.36.41-1.36 1.36v30.18c0 2.18-.68 2.72-2.72 2.72h-3.4c-2.04 0-2.72-.54-2.72-2.72V72.81c0-2.18.68-2.72 2.72-2.72h23.52Zm-.68 8.7h-15.36c-.95 0-1.36.41-1.36 1.36v40.78c0 .95.41 1.36 1.36 1.36h15.36c17.54 0 28.41-7.2 28.41-22.02s-10.06-21.48-28.41-21.48Zm56.69-8.7c2.04 0 2.72.54 2.72 2.72v82.38c0 .95.41 1.36 1.36 1.36h42.69c2.04 0 2.72.54 2.72 2.72v3.26c0 2.18-.68 2.72-2.72 2.72h-50.16c-2.04 0-2.72-.54-2.72-2.72V72.81c0-2.18.68-2.72 2.72-2.72h3.4-.01Zm110.25 5.03 40.1 86.19c.41 1.09.68 1.77.68 2.18 0 1.22-.95 1.77-2.72 1.77h-2.85c-2.72 0-3.53-.68-5.03-3.94l-12.91-28.28c-.54-1.22-.95-1.63-2.45-1.63h-39.15c-1.5 0-1.9.41-2.45 1.63l-12.91 28.28c-1.5 3.26-2.31 3.94-5.03 3.94h-2.45c-1.77 0-2.72-.54-2.72-1.77 0-.41.27-1.09.68-2.18l39.83-86.19c2.45-5.3 3.26-6.66 4.76-6.66 1.22 0 2.18 1.36 4.62 6.66Zm11.83 45.95-16.59-36.16-16.58 36.16c-.27.54-.41.95-.41 1.22 0 .54.41.68 1.36.68h31.27c.95 0 1.36-.14 1.36-.68 0-.27-.14-.68-.41-1.22Zm14.68-49.62c0-.95.82-1.36 2.45-1.36h3.53c2.72 0 3.4.41 5.03 3.13l27.87 47.58 28-47.58c1.63-2.72 2.31-3.13 5.03-3.13h3.26c1.5 0 2.31.41 2.31 1.36 0 .54-.14 1.09-.54 1.77l-33.71 55.74v33.58c0 2.18-.68 2.72-2.72 2.72h-3.4c-2.04 0-2.72-.54-2.72-2.72v-32.9l-33.71-56.42c-.41-.68-.68-1.36-.68-1.77Zm141.66-1.36c2.04 0 2.72.54 2.72 2.72v3.26c0 2.18-.68 2.72-2.72 2.72h-41.19c-.95 0-1.36.41-1.36 1.36v31.54c0 .95.41 1.36 1.36 1.36h36.57c2.04 0 2.72.54 2.72 2.72v3.13c0 2.18-.68 2.72-2.72 2.72h-36.57c-.95 0-1.36.41-1.36 1.36v32.22c0 .95.41 1.36 1.36 1.36h41.33c2.04 0 2.72.54 2.72 2.72v3.26c0 2.18-.68 2.72-2.72 2.72h-48.8c-2.04 0-2.72-.54-2.72-2.72V72.82c0-2.18.68-2.72 2.72-2.72H1563l-.01-.01Zm44.45 0c25.01 0 37.11 9.92 37.11 28.28 0 13.73-7.2 22.16-19.71 25.83l24.74 37.11c.68 1.22 1.09 2.04 1.09 2.58 0 .95-.95 1.36-2.85 1.36h-3.4c-2.72 0-3.4-.54-5.44-3.4l-21.89-33.31c-.95-1.49-1.77-1.77-3.53-1.77h-22.16c-.95 0-1.36.41-1.36 1.36v34.39c0 2.18-.68 2.72-2.72 2.72h-3.4c-2.04 0-2.72-.54-2.72-2.72V72.8c0-2.18.68-2.72 2.72-2.72h23.52v.01Zm-.68 8.7h-15.36c-.95 0-1.36.41-1.36 1.36v36.84c0 .95.41 1.36 1.36 1.36h16.72c17.81 0 27.05-6.12 27.05-19.85s-10.06-19.71-28.41-19.71Z"/><g fill="#fff" clip-path="url(#a)"><path d="M348.173 193.363c-32.582 24.016-79.807 36.829-120.468 36.829-57.012 0-108.338-21.087-147.168-56.158-3.05-2.758-.317-6.517 3.343-4.369 41.906 24.382 93.72 39.05 147.242 39.05 36.096 0 75.805-7.469 112.316-22.966 5.516-2.343 10.129 3.612 4.735 7.614Z"/><path d="M361.719 177.865c-4.149-5.32-27.53-2.513-38.025-1.269-3.197.391-3.685-2.391-.805-4.393 18.621-13.106 49.178-9.323 52.741-4.93 3.563 4.418-.927 35.047-18.426 49.666-2.685 2.246-5.248 1.05-4.052-1.928 3.93-9.811 12.74-31.801 8.567-37.146ZM324.426 79.68V66.94c0-1.928 1.465-3.221 3.222-3.221h57.037c1.83 0 3.295 1.318 3.295 3.221v10.91c-.025 1.83-1.562 4.222-4.296 8.005l-29.556 42.198c10.983-.268 22.576 1.367 32.534 6.98 2.245 1.269 2.855 3.124 3.026 4.955v13.594c0 1.855-2.05 4.027-4.198 2.904-17.548-9.201-40.856-10.202-60.258.098-1.977 1.073-4.052-1.074-4.052-2.929v-12.911c0-2.074.025-5.613 2.099-8.762l34.242-49.105h-29.8c-1.83 0-3.295-1.293-3.295-3.197ZM116.365 159.17H99.012c-1.66-.122-2.977-1.367-3.1-2.953V67.159c0-1.781 1.49-3.197 3.344-3.197h16.182c1.684.073 3.026 1.367 3.148 2.978v11.642h.317c4.222-11.252 12.154-16.499 22.844-16.499 10.861 0 17.646 5.247 22.527 16.499 4.198-11.252 13.741-16.499 23.967-16.499 7.273 0 15.229 3.002 20.086 9.738 5.491 7.493 4.369 18.378 4.369 27.92l-.025 56.208c0 1.781-1.489 3.221-3.343 3.221h-17.329c-1.733-.122-3.124-1.513-3.124-3.221v-47.202c0-3.758.342-13.13-.488-16.693-1.293-5.98-5.174-7.664-10.202-7.664-4.197 0-8.59 2.807-10.372 7.297-1.782 4.491-1.611 12.008-1.611 17.06v47.202c0 1.781-1.489 3.221-3.344 3.221H145.53c-1.757-.122-3.124-1.513-3.124-3.221l-.024-47.202c0-9.933 1.635-24.552-10.69-24.552-12.471 0-11.983 14.253-11.983 24.552v47.202c0 1.781-1.489 3.221-3.344 3.221ZM437.084 62.083c25.749 0 39.685 22.112 39.685 50.228 0 27.163-15.401 48.714-39.685 48.714-25.284 0-39.049-22.112-39.049-49.666 0-27.725 13.936-49.276 39.049-49.276Zm.147 18.183c-12.789 0-13.594 17.425-13.594 28.286 0 10.885-.171 34.12 13.447 34.12 13.448 0 14.083-18.744 14.083-30.166 0-7.517-.318-16.499-2.587-23.625-1.953-6.2-5.833-8.615-11.349-8.615ZM510.156 159.17h-17.279c-1.733-.122-3.124-1.513-3.124-3.221l-.025-89.082c.147-1.636 1.587-2.905 3.344-2.905h16.083c1.513.073 2.758 1.099 3.1 2.49V80.07h.317c4.857-12.178 11.666-17.987 23.65-17.987 7.785 0 15.375 2.807 20.257 10.495 4.539 7.126 4.539 19.11 4.539 27.725v56.06c-.195 1.562-1.635 2.807-3.344 2.807h-17.401c-1.586-.122-2.904-1.293-3.075-2.807v-48.372c0-9.738 1.123-23.991-10.861-23.991-4.222 0-8.103 2.83-10.031 7.126-2.44 5.443-2.758 10.861-2.758 16.865v47.958c-.024 1.781-1.537 3.221-3.392 3.221ZM278.958 116.631v-3.758c-12.545 0-25.797 2.684-25.797 17.474 0 7.493 3.88 12.569 10.543 12.569 4.881 0 9.25-3.002 12.008-7.883 3.417-6.004 3.246-11.641 3.246-18.402Zm17.499 42.296c-1.147 1.025-2.807 1.098-4.1.415-5.76-4.784-6.785-7.005-9.958-11.569-9.518 9.714-16.254 12.618-28.604 12.618-14.595 0-25.968-9.006-25.968-27.042 0-14.082 7.639-23.674 18.5-28.36 9.421-4.149 22.576-4.881 32.631-6.028v-2.245c0-4.125.317-9.006-2.099-12.57-2.123-3.197-6.175-4.514-9.738-4.514-6.614 0-12.52 3.392-13.96 10.421-.293 1.562-1.44 3.1-3.002 3.173l-16.84-1.806c-1.416-.317-2.978-1.465-2.587-3.637 3.88-20.403 22.307-26.553 38.805-26.553 8.445 0 19.476 2.245 26.139 8.64 8.444 7.882 7.639 18.401 7.639 29.848v27.042c0 8.127 3.368 11.69 6.541 16.083 1.123 1.562 1.367 3.441-.049 4.613-3.539 2.953-9.836 8.444-13.301 11.52l-.049-.049ZM51.47 116.631v-3.758c-12.545 0-25.798 2.684-25.798 17.474 0 7.493 3.88 12.569 10.544 12.569 4.88 0 9.25-3.002 12.008-7.883 3.416-6.004 3.245-11.641 3.245-18.402Zm17.499 42.296c-1.147 1.025-2.807 1.098-4.1.415-5.76-4.784-6.785-7.005-9.958-11.569-9.519 9.714-16.255 12.618-28.604 12.618-14.595 0-25.968-9.006-25.968-27.042 0-14.082 7.639-23.674 18.5-28.36 9.42-4.149 22.575-4.881 32.63-6.028v-2.245c0-4.125.318-9.006-2.099-12.57-2.123-3.197-6.174-4.514-9.737-4.514-6.614 0-12.52 3.392-13.96 10.421-.294 1.562-1.44 3.1-3.003 3.173L5.83 91.42c-1.415-.317-2.977-1.465-2.587-3.637C7.123 67.38 25.55 61.23 42.05 61.23c8.444 0 19.476 2.245 26.139 8.64 8.444 7.882 7.639 18.401 7.639 29.848v27.042c0 8.127 3.368 11.69 6.54 16.083 1.123 1.562 1.367 3.441-.048 4.613-3.54 2.953-9.836 8.444-13.302 11.52l-.048-.049Z"/></g><defs><clipPath id="a"><path fill="#fff" d="M0 61h561.35v169.429H0z"/></clipPath></defs></svg>